<svg xmlns="http://www.w3.org/2000/svg" viewBox="0 0 72 61.71"><defs><style>.cls-1{fill:#fff;}</style></defs><title>link_white</title><g id="Слой_2" data-name="Слой 2"><g id="Слой_1-2" data-name="Слой 1"><path class="cls-1" d="M56.57,50.14A11.57,11.57,0,0,1,45,61.71H11.57A11.57,11.57,0,0,1,0,50.14V16.71A11.58,11.58,0,0,1,11.57,5.14H39.86a1.27,1.27,0,0,1,1.28,1.29V9a1.27,1.27,0,0,1-1.28,1.29H11.57a6.45,6.45,0,0,0-6.43,6.42V50.14a6.45,6.45,0,0,0,6.43,6.43H45a6.45,6.45,0,0,0,6.43-6.43V37.28A1.26,1.26,0,0,1,52.71,36h2.57a1.27,1.27,0,0,1,1.29,1.28ZM72,23.14a2.59,2.59,0,0,1-2.58,2.57,2.54,2.54,0,0,1-1.8-.76l-7.07-7.07L34.35,44.07a1.39,1.39,0,0,1-.92.41,1.41,1.41,0,0,1-.93-.41l-4.58-4.58a1.26,1.26,0,0,1,0-1.84l26.2-26.2L47.05,4.38a2.54,2.54,0,0,1-.77-1.81A2.6,2.6,0,0,1,48.85,0H69.42A2.6,2.6,0,0,1,72,2.57Z"/></g></g></svg>