<?xml version="1.0" encoding="UTF-8" standalone="no"?>
<!DOCTYPE svg PUBLIC "-//W3C//DTD SVG 1.1//EN" "http://www.w3.org/Graphics/SVG/1.1/DTD/svg11.dtd">
<svg version="1.1" xmlns="http://www.w3.org/2000/svg" xmlns:xlink="http://www.w3.org/1999/xlink" preserveAspectRatio="xMidYMid meet" viewBox="0 0 640 640" width="640" height="640"><defs><path d="M486.15 106.17C449.96 106.17 429.86 106.17 425.84 106.17C378.45 106.17 369.64 128.86 369.64 161.51C369.64 166.36 369.64 190.61 369.64 234.27L482.32 234.27L467.29 348.1L369.64 348.1L369.64 640L251.88 640L251.88 348.1L153.85 348.1L153.85 234.27L251.88 234.27C251.88 183.95 251.88 155.99 251.88 150.4C251.88 53.04 311.53 0 398.46 0C427.75 -0.17 457.03 1.37 486.15 4.6C486.15 18.14 486.15 52 486.15 106.17Z" id="d1jgLAONiI"></path></defs><g><g><g><use xlink:href="#d1jgLAONiI" opacity="1" fill="#000000" fill-opacity="1"></use><g><use xlink:href="#d1jgLAONiI" opacity="1" fill-opacity="0" stroke="#000000" stroke-width="1" stroke-opacity="0"></use></g></g></g></g></svg>