<svg xmlns="http://www.w3.org/2000/svg" width="42.906" height="42.906" viewBox="0 0 42.906 42.906">
  <defs>
    <style>
      .cls-1 {
        fill: #fff;
        fill-rule: evenodd;
      }
    </style>
  </defs>
  <path id="_" data-name="" class="cls-1" d="M375.023,950.9a7.145,7.145,0,1,1-7.145-7.145A7.158,7.158,0,0,1,375.023,950.9Zm3.851,0a11,11,0,1,0-11,11A10.982,10.982,0,0,0,378.874,950.9Zm3.014-11.443a2.568,2.568,0,1,0-2.568,2.568A2.56,2.56,0,0,0,381.888,939.456Zm-14.01-6.14c3.126,0,9.824-.251,12.643.865a7.313,7.313,0,0,1,4.074,4.075c1.116,2.819.865,9.517,0.865,12.643s0.251,9.823-.865,12.642a7.313,7.313,0,0,1-4.074,4.075c-2.819,1.116-9.517.865-12.643,0.865s-9.824.251-12.642-.865a7.31,7.31,0,0,1-4.075-4.075c-1.116-2.819-.865-9.517-0.865-12.642s-0.251-9.824.865-12.643a7.31,7.31,0,0,1,4.075-4.075C358.054,933.065,364.752,933.316,367.878,933.316ZM389.312,950.9c0-2.959.028-5.889-.14-8.847-0.167-3.433-.949-6.475-3.461-8.987s-5.553-3.293-8.986-3.46c-2.958-.168-5.889-0.14-8.847-0.14s-5.889-.028-8.847.14c-3.433.167-6.475,0.948-8.986,3.46s-3.294,5.554-3.461,8.987c-0.167,2.958-.14,5.888-0.14,8.847s-0.027,5.888.14,8.846c0.167,3.433.949,6.475,3.461,8.987s5.553,3.293,8.986,3.461c2.958,0.167,5.889.139,8.847,0.139s5.889,0.028,8.847-.139c3.433-.168,6.475-0.949,8.986-3.461s3.294-5.554,3.461-8.987C389.34,956.787,389.312,953.857,389.312,950.9Z" transform="translate(-346.438 -929.438)"/>
</svg>
