<svg xmlns="http://www.w3.org/2000/svg" viewBox="0 0 61.72 61.72"><defs><style>.cls-1{isolation:isolate;}</style></defs><title>inst_black</title><g id="Слой_2" data-name="Слой 2"><g id="Слой_1-2" data-name="Слой 1"><g id="Слой_2-2" data-name="Слой 2"><g id="Layer_1" data-name="Layer 1"><g class="cls-1"><path d="M61.51,43.59c-.24,4.95-1.36,9.33-5,12.94s-8,4.74-12.94,5c-4.26.24-8.47.2-12.73.2s-8.48,0-12.74-.2c-4.94-.24-9.32-1.36-12.93-5s-4.75-8-5-12.94C0,39.34,0,35.12,0,30.86s0-8.48.2-12.74c.24-4.94,1.37-9.32,5-12.93s8-4.75,12.93-5C22.38,0,26.6,0,30.86,0s8.47,0,12.73.2c4.95.24,9.32,1.37,12.94,5s4.74,8,5,12.93c.24,4.26.2,8.48.2,12.74S61.75,39.34,61.51,43.59ZM12.66,6.79A10.06,10.06,0,0,0,9.12,9.12a9.92,9.92,0,0,0-2.33,3.54c-1.6,4.06-1.24,13.7-1.24,18.2S5.19,45,6.79,49.06a10.52,10.52,0,0,0,5.87,5.86c4.06,1.61,13.7,1.25,18.2,1.25s14.14.36,18.2-1.25a10.54,10.54,0,0,0,5.86-5.86c1.61-4.06,1.25-13.7,1.25-18.2s.36-14.14-1.25-18.2a9.79,9.79,0,0,0-2.33-3.54,10,10,0,0,0-3.53-2.33C45,5.19,35.36,5.55,30.86,5.55S16.72,5.19,12.66,6.79Zm18.2,39.9A15.83,15.83,0,1,1,46.69,30.86,15.81,15.81,0,0,1,30.86,46.69Zm0-26.12A10.29,10.29,0,1,0,41.14,30.86,10.31,10.31,0,0,0,30.86,20.57Zm16.47-2.49A3.7,3.7,0,1,1,51,14.39,3.68,3.68,0,0,1,47.33,18.08Z"/></g></g></g></g></g></svg>