<svg xmlns="http://www.w3.org/2000/svg" viewBox="0 0 43.3 72"><defs><style>.cls-1{fill:#fff;}</style></defs><title>ok_white</title><g id="Слой_2" data-name="Слой 2"><g id="Слой_1-2" data-name="Слой 1"><path class="cls-1" d="M37.84,47c-3.86,2.45-9.16,3.41-12.66,3.77l2.94,2.9L38.84,64.36a4.22,4.22,0,0,1,0,5.91l-.48.52a4.26,4.26,0,0,1-5.94,0c-2.7-2.73-6.63-6.67-10.73-10.77L11,70.79a4.21,4.21,0,0,1-5.9,0l-.49-.52a4.16,4.16,0,0,1,0-5.91c2.74-2.73,6.63-6.67,10.73-10.72l2.89-2.9C14.74,50.38,9.36,49.46,5.46,47,.88,44-1.13,42.27.64,38.65c1-2,3.89-3.78,7.67-.8a22.84,22.84,0,0,0,13.34,4,22.87,22.87,0,0,0,13.34-4c3.77-3,6.63-1.25,7.67.8C44.43,42.27,42.42,44,37.84,47ZM3.41,18.24a18.24,18.24,0,1,1,18.24,18.2A18.26,18.26,0,0,1,3.41,18.24Zm9.28,0a9,9,0,1,0,9-9A9,9,0,0,0,12.69,18.24Z"/></g></g></svg>