<svg xmlns="http://www.w3.org/2000/svg" viewBox="0 0 63.32 51.43"><defs><style>.cls-1{fill:#fff;}</style></defs><title>twit_white</title><g id="Слой_2" data-name="Слой 2"><g id="Слой_1-2" data-name="Слой 1"><path class="cls-1" d="M56.81,12.82c0,.56,0,1.12,0,1.68,0,17.16-13.06,36.93-36.92,36.93A36.67,36.67,0,0,1,0,45.6a26.88,26.88,0,0,0,3.13.16,26,26,0,0,0,16.11-5.54,13,13,0,0,1-12.13-9,16.53,16.53,0,0,0,2.45.2A13.82,13.82,0,0,0,13,31,13,13,0,0,1,2.57,18.24v-.16a13.15,13.15,0,0,0,5.87,1.65,13,13,0,0,1-4-17.36A36.86,36.86,0,0,0,31.18,16a14.68,14.68,0,0,1-.32-3A13,13,0,0,1,53.31,4.1,25.37,25.37,0,0,0,61.55,1a12.93,12.93,0,0,1-5.7,7.16,26.44,26.44,0,0,0,7.47-2A28,28,0,0,1,56.81,12.82Z"/></g></g></svg>