<svg id="Capa_1" data-name="Capa 1" xmlns="http://www.w3.org/2000/svg" viewBox="0 0 511.96 292.11"><defs><style>.cls-1{fill:#fff;}</style></defs><title>vk</title><path class="cls-1" d="M507.4,370.47c-1.38-2.3-9.89-20.8-50.85-58.82-42.88-39.8-37.12-33.34,14.53-102.17,31.45-41.92,44-67.52,40.09-78.46-3.74-10.44-26.88-7.68-26.88-7.68l-76.92.44s-5.7-.76-10,1.76-6.78,8.26-6.78,8.26-12.19,32.45-28.45,60c-34.27,58.21-48,61.28-53.6,57.67-13-8.42-9.76-33.86-9.76-51.91,0-56.41,8.55-79.93-16.67-86-8.38-2-14.53-3.36-35.94-3.59-27.45-.29-50.72.1-63.87,6.53-8.77,4.29-15.52,13.86-11.39,14.4,5.09.67,16.61,3.1,22.72,11.42,7.9,10.72,7.62,34.85,7.62,34.85s4.54,66.4-10.6,74.66c-10.4,5.66-24.64-5.89-55.2-58.72-15.64-27-27.48-57-27.48-57s-2.28-5.57-6.34-8.55c-4.93-3.61-11.84-4.76-11.84-4.76l-73.15.44s-11,.32-15,5.09c-3.58,4.26-.29,13-.29,13S58.66,275.4,123.49,343c59.49,61.92,127,57.86,127,57.86h30.59s9.25-1,14-6.11c4.35-4.68,4.19-13.44,4.19-13.44s-.61-41.06,18.46-47.11c18.79-5.95,42.91,39.68,68.48,57.25,19.33,13.28,34,10.37,34,10.37l68.38-1S524.36,398.6,507.4,370.47Z" transform="translate(0 -109.92)"/></svg>