<svg xmlns="http://www.w3.org/2000/svg" viewBox="0 0 77.17 44.03"><defs><style>.cls-1{isolation:isolate;}.cls-2{fill:#c42185;}</style></defs><title>vk_purple</title><g id="Слой_2" data-name="Слой 2"><g id="Слой_1-2" data-name="Слой 1"><g id="Слой_2-2" data-name="Слой 2"><g id="Layer_1" data-name="Layer 1"><g class="cls-1"><path class="cls-2" d="M71,15c-7.79,10.36-8.64,9.4-2.21,15.38,6.19,5.75,7.47,8.52,7.67,8.88,0,0,2.58,4.5-2.85,4.54L63.36,44c-2.21.44-5.15-1.56-5.15-1.56-3.85-2.66-7.47-9.53-10.28-8.64,0,0-2.89.92-2.81,7.11a3,3,0,0,1-.61,2.05,3.46,3.46,0,0,1-2.13.88H37.76c-10.16.65-19.12-8.72-19.12-8.72S8.84,25,.24,4.75c-.56-1.33,0-2,0-2A2.9,2.9,0,0,1,2.57,2l11-.08a4.25,4.25,0,0,1,1.77.72,2.93,2.93,0,0,1,1,1.29,80.27,80.27,0,0,0,4.14,8.59c4,8.28,6.75,9.69,8.32,8.84,0,0,2-1.24,1.6-11.25a11.94,11.94,0,0,0-1.16-5.26,5.38,5.38,0,0,0-3.42-1.73c-.6-.08.4-1.52,1.73-2.17,2-1,5.46-1,9.6-1a21.43,21.43,0,0,1,5.43.52c3.81.93,2.53,4.46,2.53,13,0,2.73-.53,6.55,1.44,7.79.85.57,2.94.08,8.08-8.67a74.49,74.49,0,0,0,4.3-9,2.38,2.38,0,0,1,1-1.25,2.67,2.67,0,0,1,1.53-.24L73,2c3.49-.44,4.06,1.16,4.06,1.16C77.66,4.83,75.77,8.69,71,15Z"/></g></g></g></g></g></svg>