<?xml version="1.0" encoding="UTF-8" standalone="no"?>
<!DOCTYPE svg PUBLIC "-//W3C//DTD SVG 1.1//EN" "http://www.w3.org/Graphics/SVG/1.1/DTD/svg11.dtd">
<svg version="1.1" xmlns="http://www.w3.org/2000/svg" xmlns:xlink="http://www.w3.org/1999/xlink" preserveAspectRatio="xMidYMid meet" viewBox="0 0 640 640" width="40" height="40"><defs><path d="M631.21 310.61C513.07 192.47 447.44 126.83 434.31 113.71C429.06 108.69 420.74 108.88 415.73 114.12C410.87 119.2 410.87 127.21 415.73 132.29C427.36 143.92 485.53 202.09 590.23 306.8C246.95 306.8 56.24 306.8 18.1 306.8C10.83 306.8 4.93 312.69 4.93 319.96C4.93 327.24 10.83 333.13 18.1 333.13C56.24 333.13 246.95 333.13 590.23 333.13C485.53 437.83 427.36 496 415.73 507.64C410.59 512.74 410.57 521.04 415.68 526.17C418.14 528.64 421.47 530.03 424.96 530.04C428.42 530.07 431.76 528.69 434.19 526.22C453.88 506.53 611.4 349.01 631.09 329.32C636.28 324.28 636.42 315.98 631.39 310.78C631.36 310.76 631.31 310.7 631.21 310.61Z" id="axcAtnmC"></path></defs><g><g><g><use xlink:href="#axcAtnmC" opacity="1" fill="#ffffff" fill-opacity="1"></use><g><use xlink:href="#axcAtnmC" opacity="1" fill-opacity="0" stroke="#ffffff" stroke-width="8" stroke-opacity="1"></use></g></g></g></g></svg>