<svg xmlns="http://www.w3.org/2000/svg" viewBox="0 0 1249.02 286.46"><defs><style>.cls-1{fill:#c42185;stroke:#fff;stroke-miterlimit:10;stroke-width:6.69px;}</style></defs><title>logopuple_bez</title><g id="Слой_2" data-name="Слой 2"><g id="Слой_1-2" data-name="Слой 1"><g id="_260878624" data-name=" 260878624"><path class="cls-1" d="M278.19,106.11c-28.89,28.94-44.95,45-74.11,74.16a16.8,16.8,0,0,0,0,23.73l74.14,74.21a16.73,16.73,0,0,0,23.67,0L376.12,204a16.75,16.75,0,0,0,0-23.67L301.9,106.09A16.77,16.77,0,0,0,278.19,106.11Z"/><path class="cls-1" d="M106.15,106.07l11.79,11.79,43.83-33,40.51,36.72-31,49.62,9.13,9.13a16.73,16.73,0,0,1,0,23.67l-74.23,74.23a16.73,16.73,0,0,1-23.68,0C38.11,233.77,52.71,248.43,8.25,204a16.76,16.76,0,0,1,0-23.68l74.25-74.24A16.72,16.72,0,0,1,106.15,106.07Z"/><path class="cls-1" d="M204.06,8.25l74.17,74.17a16.74,16.74,0,0,1,0,23.65l-17.81,17.86A6.09,6.09,0,0,0,259,126.3a5.69,5.69,0,0,0,4,6.93h.29a27.46,27.46,0,1,1-32.07,32.25h0c0-.18-.09-.28-.09-.37a5.56,5.56,0,0,0-6.84-4,6.93,6.93,0,0,0-2.46,1.33l-6.36,6.36-11.41,11.45a16.74,16.74,0,0,1-23.69,0l-17.84-17.84a4.6,4.6,0,0,1-1.33-2.37,5.49,5.49,0,0,1,3.89-6.83.7.7,0,0,1,.38-.1h.1A27.45,27.45,0,1,0,133.31,121h0a.61.61,0,0,1-.09.38,5.49,5.49,0,0,1-6.83,3.89,4.63,4.63,0,0,1-2.38-1.33l-17.85-17.86a16.73,16.73,0,0,1,0-23.67L180.39,8.24A16.75,16.75,0,0,1,204.06,8.25Z"/></g><path id="Маркетика" d="M510.16,89.76l-32.1,53.12L445.8,89.76H423V202.1h22.15V129.4l31.62,52h2.56L511,129.24V202.1h22V89.76Zm103.67,41.56q-9.32-11.7-26.16-11.71-16,0-27.52,12.28T548.67,162q0,17.81,11.48,30.09t27.52,12.27q16.86,0,26.16-11.71v9.47h20.7V121.85h-20.7ZM569.37,162q0-10,6.26-16.29a21.38,21.38,0,0,1,15.89-6.34,21.64,21.64,0,0,1,16,6.34q6.35,6.33,6.34,16.29t-6.34,16.29a21.68,21.68,0,0,1-16,6.34,21.42,21.42,0,0,1-15.89-6.34q-6.25-6.35-6.26-16.29ZM674,131.32v-9.47h-20.7V234.2H674V192.63q9.15,11.72,26,11.71,16.2,0,27.68-12.27T739.16,162q0-17.82-11.47-30.09T700,119.61q-16.86,0-26,11.71ZM674,162q0-10,6.26-16.29a21.36,21.36,0,0,1,15.88-6.34,21.61,21.61,0,0,1,16,6.34q6.35,6.33,6.34,16.29t-6.34,16.29a21.65,21.65,0,0,1-16,6.34,21.4,21.4,0,0,1-15.88-6.34Q674,171.93,674,162Zm120.52-.48,32.26-39.65H802.07l-27.6,35.31V121.85h-20.7V202.1h20.7V165.67l29.21,36.43h24.07Zm115.71,9a47.51,47.51,0,0,0,.8-8.5q0-18-11.47-30.17t-29.13-12.2q-18.62,0-30.49,12.12T828.07,162q0,18.28,12,30.33t31.94,12q23.1,0,35-17.17l-16.69-9.63q-6.11,8-18,8-18.47,0-22.63-15.09Zm-53.6-28q5.45-4.26,13.8-4.25a21,21,0,0,1,12.6,4q5.54,4,7.3,12.19H849.42A20.26,20.26,0,0,1,856.64,142.48Zm57.77-20.63v19.9h25.36V202.1h20.7V141.75h25v-19.9Zm102.39,45.59V121.85H996.58V202.1H1012l37.72-45.58V202.1h20.22V121.85h-15.4Zm112.82-5.94,32.26-39.65h-24.72l-27.6,35.31V121.85h-20.7V202.1h20.7V165.67l29.21,36.43h24.07Zm98.7-30.18q-9.32-11.7-26.16-11.71-16,0-27.52,12.28T1163.16,162q0,17.81,11.48,30.09t27.52,12.27q16.86,0,26.16-11.71v9.47H1249V121.85h-20.7ZM1183.86,162q0-10,6.26-16.29a21.38,21.38,0,0,1,15.89-6.34,21.64,21.64,0,0,1,16,6.34q6.35,6.33,6.34,16.29T1222,178.27a21.68,21.68,0,0,1-16,6.34,21.42,21.42,0,0,1-15.89-6.34q-6.25-6.35-6.26-16.29Z"/></g></g></svg>