<?xml version="1.0" encoding="utf-8"?>
<!-- Generator: Adobe Illustrator 23.0.3, SVG Export Plug-In . SVG Version: 6.00 Build 0)  -->
<svg version="1.1" id="Capa_1" xmlns="http://www.w3.org/2000/svg" xmlns:xlink="http://www.w3.org/1999/xlink" x="0px" y="0px"
	 viewBox="0 0 496 496" style="enable-background:new 0 0 496 496;" xml:space="preserve">
<style type="text/css">
	.st0{fill:#C42185;}
</style>
<g>
	<g>
		<g>
			<path class="st0" d="M312,0C210.5,0,128,82.5,128,184c0,31.4,7.9,61,21.8,86.8L136,284.7l-18.3-18.3l-11.3,11.3l18.3,18.3
				L112,308.7l-18.3-18.3l-11.3,11.3l18.3,18.3l-85.1,85.1C5.5,415.2,0,428.5,0,442.7C0,472.1,23.9,496,53.3,496
				c14.2,0,27.6-5.5,37.7-15.6l85.1-85.1l18.3,18.3l11.3-11.3L187.3,384l12.7-12.7l18.3,18.3l11.3-11.3L211.3,360l13.8-13.8
				C251,360.1,280.6,368,312,368c101.5,0,184-82.5,184-184S413.5,0,312,0z M79.6,469.1c-7,7-16.4,10.9-26.3,10.9
				C32.7,480,16,463.3,16,442.7c0-10,3.9-19.3,10.9-26.3l85.1-85.1l52.7,52.7L79.6,469.1z M176,372.7L123.3,320l12.7-12.7l52.7,52.7
				L176,372.7z M200,348.7L147.3,296l11-11c13.8,20.9,31.8,38.9,52.7,52.7L200,348.7z M475,224c-18,73.4-84.2,128-163,128
				c-84.5,0-154.4-62.7-166.1-144h58.2l35.8-50.1l72,104l79.9-111.8l27.9,41.9H448v-16h-19.7l-36.1-54.1l-80.1,112.2l-72-104
				L195.9,192h-51.5c-0.1-2.7-0.4-5.3-0.4-8s0.3-5.3,0.4-8H160v-16h-14.1C157.6,78.7,227.5,16,312,16c89.9,0,163.4,71.1,167.6,160
				H464v16h15.6c-0.3,5.4-0.8,10.7-1.5,16H448v16H475z"/>
			<path class="st0" d="M360,40c-17.6,0-32,14.4-32,32c0,6.4,1.9,12.4,5.2,17.4l-35.7,50l13,9.3l34.6-48.5c4.5,2.4,9.5,3.8,14.9,3.8
				c17.6,0,32-14.4,32-32S377.6,40,360,40z M360,88c-8.8,0-16-7.2-16-16s7.2-16,16-16s16,7.2,16,16S368.8,88,360,88z"/>
			<rect x="416" y="208" class="st0" width="16" height="16"/>
			<rect x="176" y="160" class="st0" width="16" height="16"/>
		</g>
	</g>
</g>
</svg>
